<?xml version="1.0" encoding="UTF-8" standalone="no"?>
<svg width="502px" height="618px" viewBox="0 0 502 618" version="1.1" xmlns="http://www.w3.org/2000/svg" xmlns:xlink="http://www.w3.org/1999/xlink" xmlns:sketch="http://www.bohemiancoding.com/sketch/ns">
    <title>Slice 1</title>
    <description>Created with Sketch (http://www.bohemiancoding.com/sketch)</description>
    <defs></defs>
    <g id="Page 1" fill="#D8D8D8" fill-rule="evenodd">
        <path d="M90.8114818,562.704367 C32.4163911,495.084174 15.6576913,422.559079 15.6576913,422.559079 C-13.2222321,334.426759 9.48434422,268.686981 9.48434422,268.686981 C37.3438968,187.496804 85.0062822,164.69758 128.590553,155.897663 C203.45328,140.055683 225.068709,181.272731 261.713267,182.934608 C263.751424,182.941678 264.259115,182.942483 264.759627,182.934608 C301.404185,181.272731 323.019614,140.055683 397.882341,155.897663 C427.414021,161.86028 458.818004,174.250119 484.665353,206.876629 C446.889209,232.578536 422.07726,275.93197 422.07726,325.083384 C422.07726,381.012032 454.203321,429.433561 501,452.883987 C490.517996,480.275685 470.499285,522.362898 435.661412,562.704367 C435.661412,562.704367 396.026149,626.346043 338.243833,615.825987 C302.854272,612.898234 298.331455,593.467626 263.236447,592.920998 C228.141439,593.467626 223.618622,612.898234 188.229061,615.825987 C130.446745,626.346043 90.8114818,562.704367 90.8114818,562.704367 Z M379.243782,3.67515405 C379.243782,73.8785881 322.608182,130.847591 252.55553,131.342146 C252.537258,130.452717 252.528078,129.561053 252.528078,128.667244 C252.528078,58.4638094 309.163678,1.494807 379.216255,1 C379.234602,1.88968099 379.243782,2.78134489 379.243782,3.67515405 Z M379.243782,3.67515405" id="Apple Logo" stroke="rgb(200,200,200)" stroke-width="1" fill="#F6F6F6"></path>
    </g>
</svg>