<?xml version="1.0" encoding="utf-8"?>
<!-- Generator: Adobe Illustrator 15.0.0, SVG Export Plug-In . SVG Version: 6.00 Build 0)  -->
<!DOCTYPE svg PUBLIC "-//W3C//DTD SVG 1.1//EN" "http://www.w3.org/Graphics/SVG/1.1/DTD/svg11.dtd">
<svg version="1.1" id="Layer_1" xmlns="http://www.w3.org/2000/svg" xmlns:xlink="http://www.w3.org/1999/xlink" x="0px" y="0px"
	 width="500px" height="500px" viewBox="0 0 500 500" enable-background="new 0 0 500 500" xml:space="preserve">
<g id="Page_1">
	<g id="Layer_1_1_">
		<path id="Shape_1_" fill="#1572B6" d="M80.637,429.124L44.329,21.921h398.929l-36.341,407.138l-163.369,45.29L80.637,429.124z"/>
		<path id="Shape_2_" fill="#33A9DC" d="M243.796,439.731l132.006-36.598l31.058-347.917H243.796V439.731z"/>
		<g id="Group" transform="translate(55.000000, 142.000000)">
			<path id="Shape_3_" fill="#FFFFFF" d="M188.795,60.744h66.086l4.562-51.141h-70.648V-40.34h0.172h125.058l-1.197,13.4
				l-12.274,137.625H188.795V60.744z"/>
			<path id="Shape_4_" fill="#EBEBEB" d="M189.093,190.445l-0.217,0.062l-55.622-15.021l-3.557-39.829h-27.025H79.566l6.997,78.414
				l102.3,28.399l0.23-0.063V190.445z"/>
			<path id="Shape_5_" fill="#FFFFFF" d="M250.636,108.57l-6.015,66.884l-55.701,15.034v51.958l102.384-28.375l0.75-8.436
				l8.687-97.065H250.636z"/>
			<path id="Shape_6_" fill="#EBEBEB" d="M188.967-40.34v31.018V9.48v0.123H68.494h-0.16l-1-11.226L65.057-26.94l-1.194-13.4
				H188.967z"/>
			<path id="Shape_7_" fill="#EBEBEB" d="M188.795,60.75v31.02v18.799v0.124h-54.757h-0.16l-1.001-11.225l-2.276-25.318l-1.195-13.4
				H188.795z"/>
		</g>
	</g>
</g>
</svg>
