<?xml version="1.0" encoding="utf-8"?>
<!-- Generator: Adobe Illustrator 15.0.0, SVG Export Plug-In . SVG Version: 6.00 Build 0)  -->
<!DOCTYPE svg PUBLIC "-//W3C//DTD SVG 1.1//EN" "http://www.w3.org/Graphics/SVG/1.1/DTD/svg11.dtd">
<svg version="1.1" id="Layer_1" xmlns="http://www.w3.org/2000/svg" xmlns:xlink="http://www.w3.org/1999/xlink" x="0px" y="0px"
	 width="500px" height="500px" viewBox="0 0 500 500" enable-background="new 0 0 500 500" xml:space="preserve">
<path fill="#E34F26" d="M80.67,429.655L44.329,21.921h399.757l-36.342,407.734l-163.98,46.093"/>
<path fill="#EF652A" d="M244.65,440.293l132.07-36.342l31.023-349.234H244.65"/>
<path fill="#EBEBEB" d="M244.65,206.288h-66.479l-4.432-51.41h70.91v-49.637h-0.887H118.785l0.886,13.295l12.409,138.275h112.57
	V206.288z M244.65,336.586h-0.887l-55.841-15.068l-3.545-39.888h-26.592H134.74l6.204,78.888l102.82,28.364h0.887V336.586z"/>
<path fill="#FFFFFF" d="M243.764,206.288v50.524h62.046l-6.203,64.706l-55.843,15.068v52.296l102.82-28.364l0.887-8.863
	l11.522-132.07l1.773-13.296h-14.183H243.764z M243.764,105.241v31.023v18.614l0,0h121.434l0,0l0,0l0.887-10.637l2.66-25.705
	l0.886-13.295H243.764z"/>
</svg>
