<?xml version="1.0" encoding="utf-8"?>
<!-- Generator: Adobe Illustrator 15.0.0, SVG Export Plug-In . SVG Version: 6.00 Build 0)  -->
<!DOCTYPE svg PUBLIC "-//W3C//DTD SVG 1.1//EN" "http://www.w3.org/Graphics/SVG/1.1/DTD/svg11.dtd">
<svg version="1.1" id="Layer_1" xmlns="http://www.w3.org/2000/svg" xmlns:xlink="http://www.w3.org/1999/xlink" x="0px" y="0px"
	 width="500px" height="500px" viewBox="0 0 500 500" enable-background="new 0 0 500 500" xml:space="preserve">
<path fill="#0868AC" d="M255.988,405.527c-3.044-0.688-5.994-1.636-8.962-2.514c-0.759-0.223-1.499-0.45-2.238-0.678
	c-2.897-0.887-5.775-1.82-8.631-2.807c-0.389-0.143-0.787-0.285-1.186-0.428c-2.561-0.9-5.093-1.849-7.61-2.821
	c-0.711-0.284-1.423-0.555-2.134-0.839c-2.765-1.091-5.505-2.229-8.216-3.414c-0.557-0.237-1.09-0.488-1.641-0.726
	c-2.33-1.058-4.635-2.12-6.93-3.225c-0.664-0.317-1.328-0.631-2.004-0.963c-1.802-0.877-3.582-1.812-5.36-2.727
	c-1.19-0.626-2.399-1.219-3.578-1.873c-2.172-1.161-4.303-2.371-6.425-3.604c-0.719-0.403-1.446-0.792-2.17-1.209
	c-2.821-1.66-5.609-3.381-8.367-5.126c-0.761-0.484-1.505-1.006-2.257-1.504c-2.001-1.289-3.992-2.603-5.953-3.959
	c-0.649-0.437-1.278-0.91-1.918-1.347c-1.895-1.337-3.768-2.693-5.629-4.068c-0.844-0.626-1.674-1.262-2.494-1.888
	c-1.705-1.304-3.4-2.617-5.079-3.969c-0.759-0.603-1.517-1.209-2.264-1.816c-2.134-1.754-4.244-3.519-6.326-5.33
	c-0.218-0.189-0.455-0.379-0.692-0.583c-2.252-1.978-4.464-4.007-6.65-6.046c-0.635-0.606-1.252-1.195-1.873-1.802
	c-1.619-1.541-3.212-3.092-4.777-4.685c-0.628-0.626-1.257-1.243-1.873-1.869c-1.991-2.039-3.947-4.106-5.863-6.202
	c-0.095-0.104-0.194-0.199-0.289-0.308c-2.027-2.215-4.007-4.481-5.946-6.768c-0.526-0.63-1.036-1.232-1.558-1.849
	c-1.446-1.745-2.881-3.509-4.28-5.292c-0.526-0.636-1.05-1.295-1.569-1.954c-1.686-2.186-3.331-4.367-4.943-6.581
	C63.716,243.942,47.698,160.059,83.333,91.173l-31.588,40.064c-40.472,58.173-35.434,133.854-4.517,195.665
	c0.735,1.479,1.506,2.939,2.264,4.396c0.486,0.925,0.941,1.873,1.446,2.783c0.285,0.546,0.605,1.081,0.901,1.603
	c0.526,0.986,1.067,1.921,1.612,2.884c0.96,1.692,1.944,3.376,2.952,5.06c0.557,0.924,1.107,1.849,1.683,2.773
	c1.115,1.802,2.257,3.58,3.426,5.358c0.486,0.759,0.96,1.518,1.458,2.253c1.612,2.404,3.26,4.803,4.96,7.16
	c0.043,0.062,0.09,0.128,0.143,0.189c0.268,0.375,0.564,0.744,0.837,1.124c1.47,2.029,2.987,4.03,4.521,6.013
	c0.564,0.721,1.133,1.446,1.702,2.167c1.368,1.722,2.762,3.429,4.178,5.136c0.528,0.635,1.062,1.28,1.596,1.906
	c1.901,2.238,3.841,4.467,5.82,6.647c0.036,0.038,0.083,0.086,0.119,0.124c0.082,0.095,0.153,0.151,0.225,0.246
	c1.933,2.11,3.912,4.173,5.916,6.235c0.621,0.641,1.256,1.28,1.896,1.911c1.553,1.564,3.13,3.102,4.723,4.633
	c0.647,0.616,1.288,1.247,1.933,1.835c2.129,2.006,4.279,3.974,6.473,5.895c0.038,0.033,0.066,0.062,0.102,0.081
	c0.372,0.331,0.759,0.645,1.127,0.962c1.932,1.674,3.899,3.334,5.88,4.965c0.806,0.654,1.624,1.295,2.435,1.944
	c1.619,1.295,3.255,2.575,4.903,3.831c0.87,0.664,1.742,1.328,2.62,1.992c1.818,1.337,3.65,2.655,5.5,3.945
	c0.676,0.488,1.328,0.962,2.004,1.422c0.188,0.133,0.36,0.266,0.55,0.394c1.755,1.21,3.549,2.371,5.342,3.533
	c0.771,0.512,1.534,1.043,2.312,1.541c2.75,1.74,5.541,3.462,8.362,5.121c0.766,0.441,1.541,0.868,2.312,1.305
	c2.075,1.199,4.161,2.37,6.276,3.522c1.145,0.616,2.318,1.195,3.474,1.788c1.493,0.782,2.976,1.574,4.492,2.333
	c0.344,0.171,0.702,0.337,1.039,0.503c0.609,0.294,1.226,0.578,1.837,0.887c2.353,1.123,4.724,2.229,7.12,3.295
	c0.51,0.228,1.001,0.451,1.506,0.674c2.743,1.199,5.51,2.352,8.303,3.452c0.671,0.274,1.347,0.531,2.022,0.796
	c2.585,0.996,5.204,1.978,7.836,2.902c0.332,0.119,0.652,0.228,0.984,0.342c2.885,1.01,5.802,1.944,8.736,2.859
	c0.7,0.204,1.404,0.427,2.11,0.631c2.987,0.9,5.939,1.977,9.021,2.546c160.157,29.205,227.322-68.122,246.45-104.469
	c-0.854-0.934-1.74-1.868-2.589-2.798C411.186,409.141,331.621,422.735,255.988,405.527z"/>
<path fill="#0868AC" d="M396.396,283.651c-22.941,4.519-48.083,3.979-73.907-2.727c-2.883-0.759-5.728-1.584-8.554-2.476
	c-0.868-0.261-1.717-0.545-2.575-0.83c-2.011-0.649-4.007-1.342-5.989-2.062c-0.905-0.332-1.812-0.664-2.703-1.006
	c-2.167-0.834-4.314-1.697-6.439-2.598c-0.583-0.247-1.166-0.475-1.735-0.735c-2.67-1.161-5.297-2.385-7.886-3.665
	c-1.332-0.65-2.641-1.338-3.954-2.011c-0.759-0.394-1.522-0.787-2.281-1.177c-1.684-0.91-3.357-1.858-5.003-2.82
	c-0.394-0.224-0.801-0.441-1.199-0.679c-2.044-1.194-4.06-2.428-6.056-3.698c-0.616-0.389-1.209-0.816-1.826-1.219
	c-1.317-0.854-2.631-1.722-3.926-2.594c-2.783-1.926-5.491-3.936-8.166-5.975c-0.616-0.488-1.232-0.962-1.84-1.451
	c-28.446-22.458-50.996-53.157-61.718-87.962c-8.922-28.66-9.192-60.099,0.804-88.304c-1.048-0.948-2.103-1.887-3.153-2.835
	L177.38,82.229c-29.27,42.118-27.682,98.503-4.849,143.049c3.829,7.469,8.132,14.714,12.945,21.609
	c4.386,6.288,9.246,13.765,15.067,18.816c2.109,2.323,4.314,4.59,6.567,6.818c0.568,0.579,1.149,1.139,1.73,1.707
	c2.187,2.12,4.41,4.207,6.71,6.231c0.095,0.075,0.178,0.171,0.272,0.237c0.023,0.028,0.048,0.037,0.064,0.066
	c2.544,2.229,5.171,4.371,7.836,6.482c0.593,0.449,1.181,0.924,1.778,1.389c2.674,2.049,5.4,4.064,8.198,5.984
	c0.086,0.057,0.152,0.119,0.237,0.18c1.232,0.854,2.489,1.646,3.736,2.467c0.603,0.389,1.172,0.806,1.773,1.171
	c2.001,1.28,4.021,2.527,6.079,3.722c0.289,0.181,0.574,0.332,0.858,0.498c1.769,1.02,3.57,2.025,5.373,3.002
	c0.626,0.352,1.266,0.664,1.906,0.996c1.242,0.649,2.489,1.313,3.755,1.943c0.19,0.091,0.39,0.176,0.569,0.257
	c2.58,1.271,5.183,2.494,7.838,3.651c0.564,0.251,1.152,0.474,1.731,0.711c2.124,0.901,4.268,1.783,6.42,2.608
	c0.916,0.346,1.84,0.678,2.751,1.01c1.958,0.726,3.921,1.39,5.898,2.054c0.896,0.284,1.773,0.578,2.67,0.854
	c2.812,0.872,5.596,1.977,8.53,2.465c54.812,9.081,94.274-0.474,122.389-16.297c-1.186-1.381-2.433-2.784-3.613-4.159
	C407.202,295.729,401.797,289.688,396.396,283.651z"/>
<path fill="#0868AC" d="M479.839,230.888c-18.953,27.299-48.647,45.911-83.443,52.763c5.401,6.036,10.807,12.077,16.208,18.1
	c1.181,1.375,2.428,2.778,3.613,4.159C465.608,278.107,479.839,230.888,479.839,230.888z"/>
<path fill="#0868AC" d="M344.761,194.778c1.248,0.465,2.49,0.877,3.751,1.304c0.551,0.171,1.101,0.36,1.655,0.521
	c1.778,0.56,3.542,1.209,5.382,1.556c83.448,16.123,106.076-42.819,112.104-51.497c-19.826,28.546-53.143,35.398-94.027,25.478
	c-3.225-0.787-6.776-1.954-9.892-3.059c-3.992-1.422-7.919-3.044-11.741-4.875c-7.265-3.49-14.178-7.72-20.599-12.566
	c-36.579-27.759-59.302-80.707-35.432-123.83l-12.916,17.801c-17.256,25.393-18.949,56.931-6.98,84.975
	C288.693,160.357,314.564,183.706,344.761,194.778z"/>
</svg>
